<svg width="36" height="46" viewBox="0 0 36 46" fill="none" xmlns="http://www.w3.org/2000/svg">
<path d="M18 0.333496C25.1717 0.333496 31 6.09683 31 13.2252C31 22.8885 18 37.1668 18 37.1668C18 37.1668 5.00002 22.8885 5.00002 13.2252C5.00002 6.09683 10.8284 0.333496 18 0.333496ZM18 9.00016C16.8507 9.00016 15.7485 9.45671 14.9359 10.2694C14.1232 11.082 13.6667 12.1842 13.6667 13.3335C13.6667 14.4828 14.1232 15.585 14.9359 16.3976C15.7485 17.2103 16.8507 17.6668 18 17.6668C19.1493 17.6668 20.2515 17.2103 21.0641 16.3976C21.8768 15.585 22.3333 14.4828 22.3333 13.3335C22.3333 12.1842 21.8768 11.082 21.0641 10.2694C20.2515 9.45671 19.1493 9.00016 18 9.00016ZM35.3333 37.1668C35.3333 41.9552 27.5767 45.8335 18 45.8335C8.42335 45.8335 0.666687 41.9552 0.666687 37.1668C0.666687 34.3718 3.31002 31.8802 7.40502 30.2985L8.79169 32.2702C6.45169 33.2452 5.00002 34.5885 5.00002 36.0835C5.00002 39.0735 10.8284 41.5002 18 41.5002C25.1717 41.5002 31 39.0735 31 36.0835C31 34.5885 29.5483 33.2452 27.2083 32.2702L28.595 30.2985C32.69 31.8802 35.3333 34.3718 35.3333 37.1668Z" fill="#FF0000"/>
</svg>
